<?xml version="1.0" standalone="no"?>
<!DOCTYPE svg PUBLIC "-//W3C//DTD SVG 20010904//EN"
 "http://www.w3.org/TR/2001/REC-SVG-20010904/DTD/svg10.dtd">
<svg version="1.0" xmlns="http://www.w3.org/2000/svg"
 width="267.000000pt" height="368.000000pt" viewBox="0 0 267.000000 368.000000"
 preserveAspectRatio="xMidYMid meet">

<g transform="translate(0.000000,368.000000) scale(0.100000,-0.100000)"
fill="#000000" stroke="none">
<path d="M10 1595 l0 -1475 1295 0 1295 0 0 1475 0 1475 -1295 0 -1295 0 0
-1475z m1235 1060 c416 -73 633 -313 652 -720 20 -424 -161 -696 -537 -808
-97 -29 -212 -47 -306 -47 l-64 0 0 145 0 145 78 0 c212 1 384 86 460 227 50
95 65 171 59 298 -15 316 -188 481 -509 488 l-93 2 0 -240 0 -240 -152 -3
-153 -3 0 385 c0 298 3 386 13 390 25 12 462 -3 552 -19z m-377 -1547 c3 -16
-6 -18 -87 -18 -69 0 -91 3 -91 13 0 24 13 28 94 25 68 -3 81 -6 84 -20z m2
-73 c0 -8 -5 -15 -10 -15 -7 0 -7 -6 0 -19 29 -55 -6 -101 -77 -101 -60 0 -93
28 -93 79 0 45 13 66 35 57 14 -5 15 -9 5 -21 -20 -25 -8 -69 23 -79 57 -20
111 28 77 70 -17 20 -28 17 -32 -8 -6 -41 -28 -32 -28 11 l0 41 50 0 c38 0 50
-4 50 -15z m-2 -197 c3 -16 -6 -18 -87 -18 -69 0 -91 3 -91 13 0 24 13 28 94
25 68 -3 81 -6 84 -20z m-23 -83 c20 -19 25 -34 25 -75 l0 -50 -90 0 -90 0 0
50 c0 67 30 100 90 100 30 0 47 -6 65 -25z"/>
<path d="M742 734 c-14 -10 -22 -25 -22 -45 0 -29 0 -29 60 -29 60 0 60 0 60
29 0 31 -30 61 -60 61 -9 0 -26 -7 -38 -16z"/>
</g>
</svg>
